<svg data-logo="logo" xmlns="http://www.w3.org/2000/svg" viewBox="0 0 240 43">
        <g style="opacity: 1;" id="logogram" transform="translate(0, 1) rotate(0)"><path d="M39.3285 32.987C43.1874 29.5411 45.5538 24.8908 45.5538 19.7738C45.5538 9.15126 35.3562 0.539978 22.7769 0.539978C10.1976 0.539978 0 9.15126 0 19.7738C0 30.3963 10.1976 39.0076 22.7769 39.0076C26.3456 39.0076 29.7226 38.3146 32.7295 37.0791C36.2616 39.2593 40.5891 40.8264 45.3684 40.4959C42.8435 39.8541 40.6717 37.2542 39.3285 32.987Z" fill="#95F9AC"></path><path d="M39.48 19.7738C39.48 27.6009 32.0018 33.9461 22.7769 33.9461C13.5521 33.9461 6.07385 27.6009 6.07385 19.7738C6.07385 11.9466 13.5521 5.6015 22.7769 5.6015C32.0018 5.6015 39.48 11.9466 39.48 19.7738Z" fill="#55EC78"></path><path d="M33.4061 19.7738C33.4061 24.8056 28.6473 28.8846 22.7769 28.8846C16.9065 28.8846 12.1477 24.8056 12.1477 19.7738C12.1477 14.742 16.9065 10.6631 22.7769 10.6631C28.6473 10.6631 33.4061 14.742 33.4061 19.7738Z" fill="#00DC33"></path></g>
        <g style="opacity: 1;" id="logotype" transform="translate(52, 8.5)"><path fill="#00DC33" d="M19.43 26.34L19.43 26.34Q16.05 26.34 13.37 24.80Q10.70 23.27 9.15 20.34Q7.61 17.42 7.61 13.29L7.61 13.29Q7.61 9.13 9.16 6.20Q10.72 3.27 13.40 1.73Q16.08 0.19 19.43 0.19L19.43 0.19Q21.60 0.19 23.47 0.80Q25.35 1.41 26.80 2.57Q28.25 3.73 29.17 5.42Q30.10 7.10 30.39 9.23L30.39 9.23L25.11 9.23Q24.94 8.19 24.45 7.38Q23.96 6.57 23.24 6.00Q22.51 5.42 21.57 5.12Q20.63 4.83 19.54 4.83L19.54 4.83Q17.55 4.83 16.05 5.82Q14.54 6.81 13.72 8.70Q12.90 10.58 12.90 13.29L12.90 13.29Q12.90 16.04 13.74 17.92Q14.58 19.80 16.07 20.75Q17.55 21.71 19.52 21.71L19.52 21.71Q20.61 21.71 21.54 21.41Q22.47 21.11 23.22 20.54Q23.96 19.97 24.45 19.15Q24.94 18.33 25.12 17.30L25.12 17.30L30.40 17.30Q30.20 19.06 29.35 20.69Q28.51 22.31 27.11 23.59Q25.70 24.87 23.77 25.61Q21.84 26.34 19.43 26.34ZM36.93 26L31.80 26L31.80 6.89L36.76 6.89L36.76 10.23L36.96 10.23Q37.49 8.45 38.73 7.54Q39.97 6.64 41.58 6.64L41.58 6.64Q41.97 6.64 42.42 6.68Q42.88 6.72 43.24 6.81L43.24 6.81L43.24 11.39Q42.89 11.27 42.25 11.20Q41.60 11.13 41.02 11.13L41.02 11.13Q39.85 11.13 38.91 11.64Q37.97 12.14 37.45 13.04Q36.93 13.93 36.93 15.13L36.93 15.13L36.93 26ZM52.41 26.38L52.41 26.38Q49.49 26.38 47.37 25.18Q45.25 23.98 44.11 21.78Q42.98 19.57 42.98 16.55L42.98 16.55Q42.98 13.59 44.11 11.37Q45.23 9.15 47.30 7.90Q49.37 6.65 52.16 6.65L52.16 6.65Q54.04 6.65 55.66 7.25Q57.28 7.85 58.51 9.06Q59.74 10.26 60.44 12.07Q61.13 13.88 61.13 16.34L61.13 16.34L61.13 17.78L45.08 17.78L45.08 14.57L58.62 14.57L56.22 15.42Q56.22 13.93 55.77 12.83Q55.32 11.73 54.42 11.12Q53.52 10.52 52.19 10.52L52.19 10.52Q50.87 10.52 49.94 11.13Q49.01 11.75 48.53 12.80Q48.05 13.85 48.05 15.20L48.05 15.20L48.05 17.47Q48.05 19.13 48.61 20.26Q49.16 21.39 50.16 21.95Q51.16 22.51 52.50 22.51L52.50 22.51Q53.40 22.51 54.14 22.26Q54.87 22.00 55.39 21.50Q55.92 20.99 56.19 20.26L56.19 20.26L60.84 21.13Q60.38 22.70 59.23 23.89Q58.09 25.08 56.37 25.73Q54.65 26.38 52.41 26.38ZM67.69 26.38L67.69 26.38Q65.88 26.38 64.43 25.74Q62.99 25.09 62.16 23.82Q61.33 22.55 61.33 20.65L61.33 20.65Q61.33 19.06 61.92 17.98Q62.51 16.91 63.53 16.26Q64.54 15.61 65.83 15.27Q67.12 14.93 68.54 14.79L68.54 14.79Q70.20 14.62 71.22 14.47Q72.23 14.33 72.70 14.01Q73.17 13.70 73.17 13.08L73.17 13.08L73.17 12.99Q73.17 12.17 72.83 11.61Q72.49 11.05 71.82 10.75Q71.16 10.45 70.18 10.45L70.18 10.45Q69.19 10.45 68.46 10.75Q67.72 11.05 67.26 11.54Q66.80 12.04 66.58 12.65L66.58 12.65L61.88 11.87Q62.37 10.21 63.52 9.05Q64.66 7.88 66.36 7.27Q68.06 6.65 70.18 6.65L70.18 6.65Q71.74 6.65 73.19 7.02Q74.64 7.39 75.80 8.16Q76.95 8.93 77.63 10.16Q78.30 11.39 78.30 13.13L78.30 13.13L78.30 26L73.45 26L73.45 23.35L73.28 23.35Q72.82 24.24 72.05 24.91Q71.28 25.59 70.19 25.98Q69.11 26.38 67.69 26.38ZM69.14 22.77L69.14 22.77Q70.35 22.77 71.27 22.29Q72.18 21.81 72.70 20.99Q73.21 20.17 73.21 19.16L73.21 19.16L73.21 17.10Q72.99 17.27 72.52 17.40Q72.06 17.54 71.50 17.64Q70.94 17.75 70.39 17.83Q69.84 17.92 69.41 17.97L69.41 17.97Q68.47 18.10 67.76 18.41Q67.04 18.72 66.65 19.22Q66.25 19.73 66.25 20.51L66.25 20.51Q66.25 21.25 66.63 21.75Q67.00 22.26 67.65 22.51Q68.29 22.77 69.14 22.77ZM78.56 6.89L89.89 6.89L89.89 10.81L78.56 10.81L78.56 6.89ZM81.19 20.86L81.19 2.35L86.31 2.35L86.31 20.41Q86.31 21.32 86.72 21.75Q87.12 22.19 88.06 22.19L88.06 22.19Q88.35 22.19 88.88 22.11Q89.41 22.04 89.68 21.97L89.68 21.97L90.42 25.81Q89.56 26.07 88.72 26.17Q87.87 26.27 87.10 26.27L87.10 26.27Q84.23 26.27 82.71 24.87Q81.19 23.47 81.19 20.86L81.19 20.86ZM99.57 26.38L99.57 26.38Q96.65 26.38 94.53 25.18Q92.41 23.98 91.28 21.78Q90.14 19.57 90.14 16.55L90.14 16.55Q90.14 13.59 91.27 11.37Q92.40 9.15 94.46 7.90Q96.53 6.65 99.32 6.65L99.32 6.65Q101.20 6.65 102.82 7.25Q104.44 7.85 105.67 9.06Q106.91 10.26 107.60 12.07Q108.29 13.88 108.29 16.34L108.29 16.34L108.29 17.78L92.24 17.78L92.24 14.57L105.78 14.57L103.38 15.42Q103.38 13.93 102.93 12.83Q102.48 11.73 101.58 11.12Q100.68 10.52 99.35 10.52L99.35 10.52Q98.04 10.52 97.10 11.13Q96.17 11.75 95.69 12.80Q95.22 13.85 95.22 15.20L95.22 15.20L95.22 17.47Q95.22 19.13 95.77 20.26Q96.33 21.39 97.33 21.95Q98.33 22.51 99.66 22.51L99.66 22.51Q100.56 22.51 101.30 22.26Q102.03 22.00 102.56 21.50Q103.08 20.99 103.35 20.26L103.35 20.26L108.00 21.13Q107.54 22.70 106.39 23.89Q105.25 25.08 103.53 25.73Q101.81 26.38 99.57 26.38ZM114.82 26L109.64 26L109.64 0.54L117.64 0.54L121.77 12.23Q122.03 13.05 122.36 14.34Q122.69 15.64 123.04 17.15Q123.38 18.65 123.68 20.07Q123.98 21.49 124.16 22.53L124.16 22.53L123.16 22.53Q123.34 21.51 123.64 20.10Q123.94 18.69 124.28 17.18Q124.63 15.68 124.96 14.36Q125.29 13.05 125.55 12.23L125.55 12.23L129.62 0.54L137.65 0.54L137.65 26L132.40 26L132.40 13.99Q132.40 13.17 132.44 11.92Q132.47 10.67 132.50 9.23Q132.54 7.78 132.57 6.32Q132.61 4.86 132.62 3.56L132.62 3.56L132.95 3.56Q132.62 4.98 132.23 6.49Q131.84 8.00 131.44 9.42Q131.03 10.84 130.68 12.03Q130.32 13.22 130.06 13.99L130.06 13.99L125.84 26L121.45 26L117.16 13.99Q116.90 13.22 116.54 12.05Q116.18 10.88 115.78 9.46Q115.38 8.04 114.97 6.53Q114.56 5.01 114.18 3.56L114.18 3.56L114.59 3.56Q114.61 4.79 114.64 6.24Q114.68 7.70 114.72 9.16Q114.76 10.62 114.79 11.88Q114.82 13.13 114.82 13.99L114.82 13.99L114.82 26ZM148.48 26.38L148.48 26.38Q145.56 26.38 143.44 25.18Q141.32 23.98 140.18 21.78Q139.05 19.57 139.05 16.55L139.05 16.55Q139.05 13.59 140.18 11.37Q141.30 9.15 143.37 7.90Q145.44 6.65 148.22 6.65L148.22 6.65Q150.10 6.65 151.73 7.25Q153.35 7.85 154.58 9.06Q155.81 10.26 156.50 12.07Q157.20 13.88 157.20 16.34L157.20 16.34L157.20 17.78L141.15 17.78L141.15 14.57L154.68 14.57L152.29 15.42Q152.29 13.93 151.84 12.83Q151.39 11.73 150.49 11.12Q149.59 10.52 148.26 10.52L148.26 10.52Q146.94 10.52 146.01 11.13Q145.08 11.75 144.60 12.80Q144.12 13.85 144.12 15.20L144.12 15.20L144.12 17.47Q144.12 19.13 144.68 20.26Q145.23 21.39 146.23 21.95Q147.23 22.51 148.57 22.51L148.57 22.51Q149.47 22.51 150.21 22.26Q150.94 22.00 151.46 21.50Q151.98 20.99 152.26 20.26L152.26 20.26L156.91 21.13Q156.44 22.70 155.30 23.89Q154.15 25.08 152.44 25.73Q150.72 26.38 148.48 26.38ZM167.06 26.38L167.06 26.38Q164.13 26.38 162.01 25.18Q159.89 23.98 158.76 21.78Q157.62 19.57 157.62 16.55L157.62 16.55Q157.62 13.59 158.75 11.37Q159.88 9.15 161.95 7.90Q164.01 6.65 166.80 6.65L166.80 6.65Q168.68 6.65 170.30 7.25Q171.93 7.85 173.16 9.06Q174.39 10.26 175.08 12.07Q175.77 13.88 175.77 16.34L175.77 16.34L175.77 17.78L159.72 17.78L159.72 14.57L173.26 14.57L170.87 15.42Q170.87 13.93 170.41 12.83Q169.96 11.73 169.06 11.12Q168.17 10.52 166.83 10.52L166.83 10.52Q165.52 10.52 164.59 11.13Q163.65 11.75 163.18 12.80Q162.70 13.85 162.70 15.20L162.70 15.20L162.70 17.47Q162.70 19.13 163.25 20.26Q163.81 21.39 164.81 21.95Q165.81 22.51 167.14 22.51L167.14 22.51Q168.05 22.51 168.78 22.26Q169.52 22.00 170.04 21.50Q170.56 20.99 170.83 20.26L170.83 20.26L175.48 21.13Q175.02 22.70 173.87 23.89Q172.73 25.08 171.01 25.73Q169.29 26.38 167.06 26.38ZM175.15 6.89L186.48 6.89L186.48 10.81L175.15 10.81L175.15 6.89ZM177.79 20.86L177.79 2.35L182.91 2.35L182.91 20.41Q182.91 21.32 183.31 21.75Q183.72 22.19 184.66 22.19L184.66 22.19Q184.95 22.19 185.48 22.11Q186.01 22.04 186.28 21.97L186.28 21.97L187.01 25.81Q186.16 26.07 185.31 26.17Q184.47 26.27 183.70 26.27L183.70 26.27Q180.83 26.27 179.31 24.87Q177.79 23.47 177.79 20.86L177.79 20.86Z"></path></g>
        
      </svg>