<svg data-logo="logo" xmlns="http://www.w3.org/2000/svg" viewBox="0 0 165 47.2">
        <g style="opacity: 1;" id="logogram" transform="translate(0, 3.1000000000000014) rotate(0)"><path d="M39.3285 32.987C43.1874 29.5411 45.5538 24.8908 45.5538 19.7738C45.5538 9.15126 35.3562 0.539978 22.7769 0.539978C10.1976 0.539978 0 9.15126 0 19.7738C0 30.3963 10.1976 39.0076 22.7769 39.0076C26.3456 39.0076 29.7226 38.3146 32.7295 37.0791C36.2616 39.2593 40.5891 40.8264 45.3684 40.4959C42.8435 39.8541 40.6717 37.2542 39.3285 32.987Z" fill="#95F9AC"></path><path d="M39.48 19.7738C39.48 27.6009 32.0018 33.9461 22.7769 33.9461C13.5521 33.9461 6.07385 27.6009 6.07385 19.7738C6.07385 11.9466 13.5521 5.6015 22.7769 5.6015C32.0018 5.6015 39.48 11.9466 39.48 19.7738Z" fill="#55EC78"></path><path d="M33.4061 19.7738C33.4061 24.8056 28.6473 28.8846 22.7769 28.8846C16.9065 28.8846 12.1477 24.8056 12.1477 19.7738C12.1477 14.742 16.9065 10.6631 22.7769 10.6631C28.6473 10.6631 33.4061 14.742 33.4061 19.7738Z" fill="#00DC33"></path></g>
        <g style="opacity: 1;" id="logotype" transform="translate(48, 17.700000000000003)"><path fill="#6bdf62" d="M10.44 16.21L10.44 16.21Q8.32 16.21 6.64 15.25Q4.95 14.28 3.98 12.44Q3.01 10.61 3.01 8.01L3.01 8.01Q3.01 5.40 3.99 3.56Q4.96 1.71 6.65 0.75Q8.34-0.22 10.44-0.22L10.44-0.22Q11.81-0.22 12.98 0.16Q14.16 0.54 15.07 1.27Q15.99 2.00 16.57 3.06Q17.15 4.12 17.33 5.46L17.33 5.46L14.01 5.46Q13.90 4.81 13.60 4.30Q13.29 3.79 12.83 3.43Q12.38 3.07 11.79 2.88Q11.20 2.69 10.51 2.69L10.51 2.69Q9.26 2.69 8.32 3.31Q7.37 3.94 6.86 5.12Q6.34 6.31 6.34 8.01L6.34 8.01Q6.34 9.74 6.87 10.92Q7.39 12.10 8.33 12.70Q9.26 13.30 10.50 13.30L10.50 13.30Q11.18 13.30 11.77 13.12Q12.36 12.93 12.82 12.57Q13.29 12.21 13.60 11.69Q13.90 11.18 14.02 10.53L14.02 10.53L17.34 10.53Q17.21 11.64 16.68 12.66Q16.15 13.68 15.27 14.49Q14.39 15.29 13.17 15.75Q11.96 16.21 10.44 16.21ZM21.44 16L18.22 16L18.22 3.99L21.33 3.99L21.33 6.08L21.46 6.08Q21.80 4.97 22.58 4.40Q23.35 3.83 24.36 3.83L24.36 3.83Q24.61 3.83 24.90 3.86Q25.18 3.88 25.41 3.94L25.41 3.94L25.41 6.82Q25.19 6.74 24.78 6.70Q24.37 6.65 24.01 6.65L24.01 6.65Q23.28 6.65 22.69 6.97Q22.10 7.29 21.77 7.85Q21.44 8.42 21.44 9.17L21.44 9.17L21.44 16ZM31.17 16.24L31.17 16.24Q29.34 16.24 28.00 15.48Q26.67 14.73 25.96 13.35Q25.24 11.96 25.24 10.06L25.24 10.06Q25.24 8.20 25.95 6.80Q26.66 5.41 27.96 4.62Q29.26 3.84 31.01 3.84L31.01 3.84Q32.19 3.84 33.21 4.22Q34.23 4.59 35.01 5.35Q35.78 6.11 36.22 7.25Q36.65 8.38 36.65 9.93L36.65 9.93L36.65 10.83L26.56 10.83L26.56 8.81L35.07 8.81L33.57 9.35Q33.57 8.42 33.28 7.72Q33.00 7.03 32.44 6.65Q31.87 6.27 31.03 6.27L31.03 6.27Q30.21 6.27 29.62 6.65Q29.04 7.04 28.73 7.70Q28.43 8.36 28.43 9.21L28.43 9.21L28.43 10.64Q28.43 11.68 28.78 12.39Q29.13 13.10 29.76 13.45Q30.39 13.81 31.23 13.81L31.23 13.81Q31.80 13.81 32.26 13.65Q32.72 13.49 33.05 13.17Q33.38 12.85 33.55 12.39L33.55 12.39L36.47 12.94Q36.18 13.93 35.46 14.67Q34.74 15.42 33.66 15.83Q32.58 16.24 31.17 16.24ZM40.78 16.24L40.78 16.24Q39.64 16.24 38.73 15.83Q37.82 15.43 37.30 14.63Q36.78 13.83 36.78 12.64L36.78 12.64Q36.78 11.64 37.15 10.96Q37.52 10.29 38.16 9.88Q38.80 9.47 39.61 9.25Q40.42 9.04 41.31 8.95L41.31 8.95Q42.35 8.85 42.99 8.75Q43.63 8.66 43.93 8.46Q44.22 8.27 44.22 7.88L44.22 7.88L44.22 7.83Q44.22 7.31 44.01 6.96Q43.79 6.60 43.38 6.41Q42.96 6.22 42.34 6.22L42.34 6.22Q41.72 6.22 41.26 6.41Q40.80 6.60 40.51 6.91Q40.22 7.22 40.08 7.61L40.08 7.61L37.12 7.12Q37.43 6.07 38.15 5.34Q38.87 4.61 39.94 4.23Q41.01 3.84 42.34 3.84L42.34 3.84Q43.32 3.84 44.23 4.07Q45.15 4.30 45.87 4.79Q46.60 5.27 47.02 6.04Q47.45 6.82 47.45 7.91L47.45 7.91L47.45 16L44.40 16L44.40 14.33L44.29 14.33Q44.00 14.89 43.51 15.32Q43.03 15.74 42.35 15.99Q41.67 16.24 40.78 16.24ZM41.69 13.97L41.69 13.97Q42.45 13.97 43.03 13.67Q43.60 13.37 43.92 12.85Q44.25 12.34 44.25 11.70L44.25 11.70L44.25 10.40Q44.11 10.51 43.82 10.60Q43.53 10.68 43.17 10.75Q42.82 10.81 42.47 10.87Q42.13 10.92 41.86 10.95L41.86 10.95Q41.27 11.04 40.82 11.23Q40.37 11.42 40.12 11.74Q39.87 12.06 39.87 12.55L39.87 12.55Q39.87 13.01 40.11 13.33Q40.35 13.65 40.75 13.81Q41.15 13.97 41.69 13.97ZM47.61 3.99L54.73 3.99L54.73 6.45L47.61 6.45L47.61 3.99ZM49.26 12.77L49.26 1.13L52.48 1.13L52.48 12.49Q52.48 13.06 52.74 13.33Q52.99 13.60 53.58 13.60L53.58 13.60Q53.76 13.60 54.09 13.56Q54.43 13.51 54.60 13.46L54.60 13.46L55.06 15.88Q54.52 16.04 53.99 16.11Q53.46 16.17 52.98 16.17L52.98 16.17Q51.17 16.17 50.22 15.29Q49.26 14.41 49.26 12.77L49.26 12.77ZM60.82 16.24L60.82 16.24Q58.98 16.24 57.65 15.48Q56.32 14.73 55.60 13.35Q54.89 11.96 54.89 10.06L54.89 10.06Q54.89 8.20 55.60 6.80Q56.31 5.41 57.61 4.62Q58.91 3.84 60.66 3.84L60.66 3.84Q61.84 3.84 62.86 4.22Q63.88 4.59 64.65 5.35Q65.43 6.11 65.86 7.25Q66.30 8.38 66.30 9.93L66.30 9.93L66.30 10.83L56.21 10.83L56.21 8.81L64.72 8.81L63.21 9.35Q63.21 8.42 62.93 7.72Q62.64 7.03 62.08 6.65Q61.52 6.27 60.68 6.27L60.68 6.27Q59.85 6.27 59.27 6.65Q58.68 7.04 58.38 7.70Q58.08 8.36 58.08 9.21L58.08 9.21L58.08 10.64Q58.08 11.68 58.43 12.39Q58.78 13.10 59.41 13.45Q60.03 13.81 60.87 13.81L60.87 13.81Q61.44 13.81 61.90 13.65Q62.36 13.49 62.69 13.17Q63.02 12.85 63.19 12.39L63.19 12.39L66.11 12.94Q65.82 13.93 65.10 14.67Q64.38 15.42 63.30 15.83Q62.23 16.24 60.82 16.24ZM70.40 16L67.14 16L67.14-0.01L72.17-0.01L74.77 7.34Q74.93 7.86 75.14 8.67Q75.35 9.49 75.57 10.44Q75.78 11.38 75.97 12.27Q76.16 13.16 76.27 13.82L76.27 13.82L75.64 13.82Q75.76 13.17 75.95 12.29Q76.13 11.40 76.35 10.46Q76.56 9.51 76.77 8.68Q76.98 7.86 77.14 7.34L77.14 7.34L79.70-0.01L84.75-0.01L84.75 16L81.45 16L81.45 8.45Q81.45 7.93 81.47 7.15Q81.50 6.36 81.52 5.46Q81.54 4.55 81.56 3.63Q81.58 2.71 81.59 1.90L81.59 1.90L81.80 1.90Q81.59 2.79 81.34 3.74Q81.10 4.69 80.85 5.58Q80.59 6.47 80.37 7.22Q80.14 7.96 79.98 8.45L79.98 8.45L77.33 16L74.57 16L71.87 8.45Q71.71 7.96 71.48 7.23Q71.26 6.49 71.01 5.60Q70.75 4.71 70.50 3.76Q70.24 2.81 70.00 1.90L70.00 1.90L70.26 1.90Q70.27 2.67 70.29 3.58Q70.31 4.50 70.34 5.41Q70.37 6.33 70.38 7.12Q70.40 7.91 70.40 8.45L70.40 8.45L70.40 16ZM91.56 16.24L91.56 16.24Q89.72 16.24 88.39 15.48Q87.06 14.73 86.34 13.35Q85.63 11.96 85.63 10.06L85.63 10.06Q85.63 8.20 86.34 6.80Q87.05 5.41 88.35 4.62Q89.65 3.84 91.40 3.84L91.40 3.84Q92.58 3.84 93.60 4.22Q94.62 4.59 95.39 5.35Q96.17 6.11 96.60 7.25Q97.04 8.38 97.04 9.93L97.04 9.93L97.04 10.83L86.95 10.83L86.95 8.81L95.46 8.81L93.95 9.35Q93.95 8.42 93.67 7.72Q93.39 7.03 92.82 6.65Q92.26 6.27 91.42 6.27L91.42 6.27Q90.59 6.27 90.01 6.65Q89.42 7.04 89.12 7.70Q88.82 8.36 88.82 9.21L88.82 9.21L88.82 10.64Q88.82 11.68 89.17 12.39Q89.52 13.10 90.15 13.45Q90.78 13.81 91.61 13.81L91.61 13.81Q92.18 13.81 92.64 13.65Q93.11 13.49 93.43 13.17Q93.76 12.85 93.93 12.39L93.93 12.39L96.86 12.94Q96.57 13.93 95.85 14.67Q95.13 15.42 94.05 15.83Q92.97 16.24 91.56 16.24ZM103.23 16.24L103.23 16.24Q101.40 16.24 100.07 15.48Q98.73 14.73 98.02 13.35Q97.31 11.96 97.31 10.06L97.31 10.06Q97.31 8.20 98.01 6.80Q98.72 5.41 100.02 4.62Q101.32 3.84 103.07 3.84L103.07 3.84Q104.26 3.84 105.28 4.22Q106.30 4.59 107.07 5.35Q107.84 6.11 108.28 7.25Q108.71 8.38 108.71 9.93L108.71 9.93L108.71 10.83L98.63 10.83L98.63 8.81L107.13 8.81L105.63 9.35Q105.63 8.42 105.35 7.72Q105.06 7.03 104.50 6.65Q103.93 6.27 103.10 6.27L103.10 6.27Q102.27 6.27 101.68 6.65Q101.10 7.04 100.80 7.70Q100.50 8.36 100.50 9.21L100.50 9.21L100.50 10.64Q100.50 11.68 100.84 12.39Q101.19 13.10 101.82 13.45Q102.45 13.81 103.29 13.81L103.29 13.81Q103.86 13.81 104.32 13.65Q104.78 13.49 105.11 13.17Q105.44 12.85 105.61 12.39L105.61 12.39L108.53 12.94Q108.24 13.93 107.52 14.67Q106.80 15.42 105.72 15.83Q104.64 16.24 103.23 16.24ZM108.33 3.99L115.45 3.99L115.45 6.45L108.33 6.45L108.33 3.99ZM109.98 12.77L109.98 1.13L113.20 1.13L113.20 12.49Q113.20 13.06 113.45 13.33Q113.71 13.60 114.30 13.60L114.30 13.60Q114.48 13.60 114.81 13.56Q115.15 13.51 115.32 13.46L115.32 13.46L115.78 15.88Q115.24 16.04 114.71 16.11Q114.18 16.17 113.70 16.17L113.70 16.17Q111.89 16.17 110.94 15.29Q109.98 14.41 109.98 12.77L109.98 12.77Z"></path></g>
        
      </svg>